<?xml version="1.0" encoding="UTF-8"?>
<svg id="Layer_1" xmlns="http://www.w3.org/2000/svg" version="1.1" viewBox="0 0 24 24">
  <!-- Generator: Adobe Illustrator 30.1.0, SVG Export Plug-In . SVG Version: 2.1.1 Build 136)  -->
  <defs>
    <style>
      .st0 {
        fill: #343231;
      }
    </style>
  </defs>
  <g>
    <path class="st0" d="M11.9,14.6c-1.8,0-3.3-1.6-3.3-3.5s1.5-3.5,3.3-3.5,3.3,1.6,3.3,3.5-1.5,3.5-3.3,3.5ZM11.9,8.6c-1.3,0-2.3,1.1-2.3,2.5s1,2.5,2.3,2.5,2.3-1.1,2.3-2.5-1-2.5-2.3-2.5Z"/>
    <path class="st0" d="M6.1,14.4c-1.3-.5-2.2-1.8-2.2-3.3s.9-2.8,2.2-3.3l.3.9c-.9.3-1.6,1.3-1.6,2.4s.6,2,1.6,2.4l-.3.9Z"/>
    <path class="st0" d="M17.7,14.4l-.4-.9c.9-.4,1.5-1.3,1.5-2.3s-.6-2-1.5-2.3l.4-.9c1.3.5,2.1,1.8,2.1,3.3s-.9,2.8-2.1,3.3Z"/>
    <path class="st0" d="M11.9,19.5c-1.4,0-2.6-.9-3.1-2.2l.9-.4c.4,1,1.2,1.6,2.2,1.6s1.8-.6,2.2-1.6l.9.4c-.5,1.4-1.7,2.2-3.1,2.2h0Z"/>
    <path class="st0" d="M14.1,5.2c-.3-1.1-1.2-1.8-2.2-1.8s-1.9.7-2.2,1.8l-1-.3c.4-1.5,1.7-2.5,3.2-2.5s2.8,1,3.2,2.5l-1,.3h0Z"/>
    <path class="st0" d="M14.7,11.6v-1c1.3,0,2.3-1.1,2.3-2.5s-1-2.5-2.3-2.5-2.3,1.1-2.3,2.5h-1c0-1.9,1.5-3.5,3.3-3.5s3.3,1.6,3.3,3.5-1.5,3.5-3.3,3.5h0Z"/>
    <path class="st0" d="M9,11.6c-1.2,0-2.3-.7-2.9-1.8-.3-.5-.4-1.1-.4-1.7,0-1.9,1.5-3.5,3.3-3.5s3.3,1.6,3.3,3.5h-1c0-1.4-1-2.5-2.3-2.5s-2.3,1.1-2.3,2.5.1.9.3,1.2c.4.8,1.2,1.2,2,1.2,0,0,0,1,0,1Z"/>
    <path class="st0" d="M9,17.6c-1.8,0-3.3-1.6-3.3-3.5s.2-1.2.4-1.7c.6-1.1,1.7-1.8,2.9-1.8v1c-.8,0-1.6.5-2,1.2-.2.4-.3.8-.3,1.2,0,1.4,1,2.5,2.3,2.5s2.3-1.1,2.3-2.5h1c0,1.9-1.5,3.5-3.3,3.5Z"/>
    <path class="st0" d="M14.7,17.6c-1.8,0-3.3-1.6-3.3-3.5h1c0,1.4,1,2.5,2.3,2.5s2.3-1.1,2.3-2.5-1-2.5-2.3-2.5v-1c1.8,0,3.3,1.6,3.3,3.5s-1.5,3.5-3.3,3.5h0Z"/>
  </g>
  <path class="st0" d="M8.5,21.5c-2.1,0-4.1-1.2-5.1-3.2l-1.5-3.1,9,4.5c.3.1.5.5.4.8s-.3.6-.6.6l-1.3.2c-.3,0-.6,0-.9,0h0ZM4.1,17.5l.2.4c.9,1.9,2.9,2.9,4.9,2.6h.6c0-.1-5.7-3-5.7-3Z"/>
  <path class="st0" d="M15.5,21.5c-.3,0-.6,0-.9,0l-1.3-.2c-.3,0-.6-.3-.6-.6,0-.3.1-.7.4-.8l9-4.5-1.5,3.1c-1,2-3,3.2-5.1,3.2h0ZM14.2,20.4h.6c2,.4,4-.6,4.9-2.5l.2-.4s-5.7,2.9-5.7,2.9Z"/>
</svg>