<?xml version="1.0" encoding="UTF-8"?>
<svg id="Layer_1" xmlns="http://www.w3.org/2000/svg" version="1.1" viewBox="0 0 24 24">
  <!-- Generator: Adobe Illustrator 30.1.0, SVG Export Plug-In . SVG Version: 2.1.1 Build 136)  -->
  <defs>
    <style>
      .st0 {
        fill: #343231;
      }
    </style>
  </defs>
  <path class="st0" d="M19.3,22H5.2c-1.1,0-2-.9-2-2V4c0-1.1.9-2,2-2h14.1c1.1,0,2,.9,2,2v16.1c0,1.1-.9,2-2,2h0ZM5.2,3c-.6,0-1,.5-1,1v16.1c0,.5.4,1,1,1h14.1c.6,0,1-.5,1-1V4c0-.5-.5-1-1-1H5.2Z"/>
  <path class="st0" d="M8.8,14.1h-.4c-1.1,0-2-.9-2-2v-.4c0-1.1.9-2,2-2h.4c1.1,0,2,.9,2,2v.4c0,1.1-.9,2-2,2ZM8.4,10.9c-.5,0-1,.4-1,1v.4c0,.5.4,1,1,1h.4c.5,0,1-.4,1-1v-.4c0-.5-.4-1-1-1h-.4Z"/>
  <path class="st0" d="M8.6,17.7l-1.3-2.6-2.8.9.9-2.7-2.7-1.3,2.7-1.3-.9-2.7,2.8.9,1.3-2.6,1.3,2.6,2.8-.9-.9,2.7,2.7,1.3-2.7,1.3.9,2.7-2.8-.9-1.3,2.6ZM7.8,13.9l.8,1.6.8-1.6,1.7.6-.6-1.7,1.6-.8-1.6-.8.6-1.7-1.7.6-.8-1.6-.8,1.6-1.7-.6.6,1.7-1.6.8,1.6.8-.6,1.7s1.7-.6,1.7-.6Z"/>
  <rect class="st0" x="5.6" y="15" width="1" height="6.6"/>
  <rect class="st0" x="5.6" y="2.5" width="1" height="6.6"/>
  <rect class="st0" x="10.5" y="15" width="1" height="6.6"/>
  <rect class="st0" x="10.5" y="2.5" width="1" height="6.6"/>
  <rect class="st0" x="11.6" y="9.1" width="9.2" height="1"/>
  <rect class="st0" x="3.7" y="9.1" width="1.9" height="1"/>
  <rect class="st0" x="11.6" y="13.9" width="9.2" height="1"/>
  <rect class="st0" x="3.7" y="13.9" width="1.9" height="1"/>
</svg>