<?xml version="1.0" encoding="UTF-8"?>
<svg id="Layer_1" xmlns="http://www.w3.org/2000/svg" version="1.1" viewBox="0 0 24 24">
  <!-- Generator: Adobe Illustrator 30.1.0, SVG Export Plug-In . SVG Version: 2.1.1 Build 136)  -->
  <defs>
    <style>
      .st0 {
        fill: #343231;
      }
    </style>
  </defs>
  <path class="st0" d="M3.4,12.2c-.1,0-.2,0-.3-.1-.2-.2-.2-.5,0-.7L10.8,3c.3-.3.7-.5,1.2-.5h0c.4,0,.9.2,1.2.5l7.8,8.4c.2.2.2.5,0,.7-.2.2-.5.2-.7,0L12.4,3.6c-.1-.1-.3-.2-.4-.2h0c-.2,0-.3,0-.4.2L3.8,12.1c0,.1-.2.2-.4.2Z"/>
  <path class="st0" d="M5.5,21.6c-.3,0-.5-.2-.5-.5v-11.6c0-.3.2-.5.5-.5s.5.2.5.5v11.6c0,.3-.2.5-.5.5Z"/>
  <path class="st0" d="M18.5,21.6c-.3,0-.5-.2-.5-.5v-11.6c0-.3.2-.5.5-.5s.5.2.5.5v11.6c0,.3-.2.5-.5.5Z"/>
  <path class="st0" d="M13.7,12.2h-3.4c-.3,0-.5-.1-.7-.3-.2-.2-.2-.5-.2-.8.3-1.3,1.4-2.2,2.6-2.2s2.3.9,2.6,2.2c0,.3,0,.6-.2.8-.2.2-.4.3-.7.3h0ZM10.4,11.2h3.2c-.2-.8-.9-1.3-1.6-1.3s-1.4.6-1.6,1.3Z"/>
  <path class="st0" d="M16.3,21.6c-.3,0-.5-.2-.5-.5v-6.2c0-.1,0-.3-.2-.3h-7.2c-.1,0-.2.1-.2.3v6.2c0,.3-.2.5-.5.5s-.5-.2-.5-.5v-6.2c0-.7.5-1.3,1.2-1.3h7.2c.7,0,1.2.6,1.2,1.3v6.2c0,.3-.2.5-.5.5Z"/>
</svg>