<?xml version="1.0" encoding="UTF-8"?>
<svg id="Layer_2" xmlns="http://www.w3.org/2000/svg" version="1.1" viewBox="0 0 139.9 139.9">
  <!-- Generator: Adobe Illustrator 30.1.0, SVG Export Plug-In . SVG Version: 2.1.1 Build 136)  -->
  <defs>
    <style>
      .st0 {
        fill: #f7dfba;
      }
    </style>
  </defs>
  <g id="Layer_1-2">
    <path class="st0" d="M0,0v139.9h139.9V0H0ZM58.8,108c-1.7,0-6-.2-9.1-.2s-5,0-6.7.2v-1.5c4.2-1.9,7.2-6.2,11.6-20.4,1.2.3,2.6.5,3.9.6l-.2.7c-1.3,4.6-2.6,9.2-2.6,13s.8,5.3,3.1,6.1v1.5h0ZM97,108c-1.6,0-6.8-.2-9.6-.2s-10.3,0-12.2.2v-1.5c2.8-.6,3.7-2.4,3.7-5.2s-.5-4.5-1.2-7.2l-2.6-9.7v-.4c0,0-.2-.2-.2-.2l-.5-2.1h0s0,0,0,0c-5.3,1.6-10.3,2.3-14.9,1.6h0c-1.3-.2-2.5-.5-3.8-.9h0s0,0,0,0c-.5-.2-1.1-.4-1.6-.6-6.6-2.9-7.7-8-5.8-12.2,2-4.4,5.8-5.5,9-4.6h0c.3,0,.7.2,1,.4.9.4,1.6.9,2.2,1.5.1.1.2.3.3.4,0,0,0,0,0,0,0,0,0,.1.1.2,0,0,0,0,0,.1,1.1,1.6,1.2,3.7.5,5.2,0,.2-.2.4-.3.6-.7,1.2-1.9,2-3.4,2.1h0s0,0,0,0c-.6,0-1.3-.1-2-.4-1.4-.6-3.1-2.1-3.6-2.9-.2.2-.4.5-.5.7-.8,1.8,0,4,2.1,5.8.6.5,1.4,1.1,2.2,1.5h0c0,0,.2,0,.2.1.2,0,.4.2.6.3.8.4,1.9.7,3,.9,4.1.8,9.6.3,13.9-1.6h0l-.5-2.1h0v-.4c-.1,0-5.8-21.7-5.8-21.7l-3.8,12.9c0-.1,0-.2-.1-.3-.4-1-1.1-2.3-2.5-3.4h0l10-32.5h3.4l7.5,28.9.9,3.3h0l.9,3.3,2.4,9.1.5,1.8v.3c0,0,4.1,15.6,4.1,15.6,2.1,8.2,4.2,10.8,6.1,12.2v1.5h0Z"/>
  </g>
</svg>