<?xml version="1.0" encoding="UTF-8"?>
<svg id="Layer_2" data-name="Layer 2" xmlns="http://www.w3.org/2000/svg" viewBox="0 0 692.8 101.2">
  <defs>
    <style>
      .cls-1 {
        fill: #343231;
      }
    </style>
  </defs>
  <g id="Layer_2-2" data-name="Layer 2">
    <g id="Layer_1-2" data-name="Layer 1-2">
      <g>
        <path class="cls-1" d="M96.3,45.6c10.9-4.8,14.4-12.1,14.4-21.5,0-14.1-8.3-23.8-26-23.8s-6.8.2-12.6.2-10.3-.1-12-.2v1.8c4.3,1,4.9,3.3,4.9,16.8v49.8c0,11.2-.3,14.7-3,16.1-2-1.7-4.1-5.1-6.3-13.5L36.8.4h-3.9L13.9,60.5c-5.3,17.5-8.9,22.7-13.9,24.9v1.8c2-.1,4.6-.2,7.8-.2s8.5.1,10.6.2v-1.8c-2.6-.9-3.6-3.7-3.6-7.1s1.4-9.7,3-15.1l1.1-3.6c2.6-.1,5.3-.1,8-.1s7,0,10.6.1l3,11.3c.8,3.2,1.4,6.1,1.4,8.4s-1.1,5.3-4.3,6.1v1.8c2.1-.1,10.6-.2,14.1-.2s5.9,0,8.5.1h2.6c2.9-.2,7-.2,9.5-.2,3.6,0,10.1.1,12.1.2v-1.8c-4.4-.9-4.8-3.3-4.8-16.8v-20.1h2.1c6.7,12.2,10.6,28.7,16.2,34.7,3.6,3.8,8,4.2,10.9,4.2,5.6,0,7-1.1,7-1.1v-.9c-2.8-1.8-14.8-27.9-19.6-39.8h0l.1.1ZM26.8,54.5c-2.9,0-4.5,0-6.5-.1l8.4-28.4,7.4,28.4c-3.1.1-6.2.1-9.3.1ZM83.8,45.4h-4.2V5c.4-.6,1.7-1.1,3.8-1.1,8,0,11.4,7,11.4,21.5s-3.4,20-11.1,20h.1Z"/>
        <path class="cls-1" d="M146.3,84.3c-11.6,0-20.3-13.8-20.3-40.3S136.6,3.8,148.2,3.8s13.4,7.5,18.1,23h1.7c-.1-3.2-.1-7.1-.1-11.1s0-9.6.2-13.2c-4.2-.5-12.9-2.5-19.8-2.5-26,0-38.1,22.2-38.1,44.1s12.2,44.1,36.6,44.1,17.1-2.7,21.3-5.5c0-7.1.5-16.9.8-21.3l-1.8-.6c-3.2,11.5-10.7,23.5-20.8,23.5h0Z"/>
        <path class="cls-1" d="M209.7.4v1.8c4.6,1,4.8,3.4,4.8,16.7v19c-4.5.1-9,.1-13.5.1s-8.3,0-12.4-.1v-19c0-13.3.1-15.8,4.8-16.8V.4c-2.1.1-8.6.2-12.1.2s-10-.1-12.1-.2v1.8c4.6,1,4.8,3.4,4.8,16.7v49.8c0,13.3-.1,15.8-4.8,16.8v1.8c2.1-.1,8.6-.2,12.1-.2s10,.1,12.1.2v-1.8c-4.6-.9-4.8-3.4-4.8-16.8v-25.5c4-.1,8.1-.1,12.4-.1s9,0,13.5.1v25.5c0,13.3-.1,15.8-4.8,16.8v1.8c2.1-.1,8.6-.2,12.1-.2s10,.1,12.1.2v-1.8c-4.6-.9-4.8-3.4-4.8-16.8V18.9c0-13.3.1-15.8,4.8-16.8V.4c-2.1.1-8.6.2-12.1.2s-10-.1-12.1-.2Z"/>
        <path class="cls-1" d="M337.3,4.9c8.5,0,14.2,0,20.9,17.2h1.8c-.2-3.8-.4-7.5-.4-11.2s.1-7.1.2-10.6c-8.2.2-26.6.2-36.9.2s-2.7,0-4.5,0v-.2c-.7,0-1.5,0-2.5.1h-.1c-1.5,0-2.8,0-3.6-.1v.2h-1.8c-3.6,0-7.4-.1-9.5-.2v1.8c2.3.7,3.2,3.3,3.2,7.1s-1.1,9.3-2.6,15.1l-10.6,38.4-14.1-46.1c-1.4-4.9-1.7-7.8-1.7-9.5,0-2.7,1-4.3,3.6-5V.4c-2,.1-10.2.2-13.8.2s-4.2,0-6.3-.1h0c-.5-.1-1.1,0-1.9,0h-1.7c-2.7.2-6.2.2-8.4.2-3.6,0-10-.1-12.1-.2v1.8c4.6,1,4.8,3.4,4.8,16.7v49.8c0,13.3-.1,15.8-4.8,16.8v1.8c2.1-.1,8.6-.2,12.1-.2s10,.1,12.1.2v-1.8c-4.6-.9-4.8-3.4-4.8-16.8V18.9c0-10,0-13.9,2.1-15.6,1.4,1.9,3,5.3,5.4,13l22.9,71h3.4l17.7-60c4.4-15.4,6.5-20.6,9.7-23.2,1.3,2,1.4,6,1.4,14.9v49.8c0,13.4-.6,15.8-4.5,16.8v1.8c2.4-.1,8.4-.2,11.6-.2h9c9.6,0,22.3.1,26.5.2,0-8,.1-18.2.1-23.9h-1.7c-6.1,18.5-14.1,19.4-20.4,19.4s-4.8-.2-5.9-.5v-37.9h5c4.2,0,11.4.6,12.7,8.8h1.8c-.2-2.8-.5-7.2-.5-12s.2-7.5.5-11h-1.8c-2.3,9.4-8,10.2-12.7,10.2h-5V5.3c1.1-.2,4.9-.5,5.9-.5h0l.2.1Z"/>
        <path class="cls-1" d="M385.5,83.7c-2.4,0-5.2-.2-5.9-1.1V5c.8-.7,5.2-1.1,5.7-1.1,6.3,0,21.8,1.3,24.3,31,0,0,4.3-25.1,4.4-26l-2.6-2.3c-5.8-3.8-13.9-6.3-25-6.3h-25.6v1.8c3.8.8,4,3.6,4,16.7v49.8c0,13.3-.4,15.9-4,16.8v1.8c2.1-.1,8-.2,11.4-.2,6.3,0,12.1.4,16.1.4,8.4,0,15.4-2.2,21.1-6.1-.3,0-8.5-3-8.5-3-3.8,3.7-8.9,5.5-15.4,5.5h0v-.1Z"/>
        <path class="cls-1" d="M486.6,41.2v.2c-.4-6.1-2.6-10.2-6.5-10.2s-3.1,1.1-3.1,2.8c0,4.3,4.8,4.3,4.8,15.2s-4.8,23.6-11.3,33.5c-.6.6-1.2,1.1-1.8,1.6.1-2.6.1-5.1.1-7.4,0-34.5-10.2-45.8-13.8-45.8s-3.7,1.1-6.3,3c-1.6,1.2-3,2.7-3.9,4.5-1.3-4.7-4.4-7.5-8.5-7.5s-7,1.9-10.3,5.1c-3,3-5.8,7.1-7.7,12l5-24.4,4-19.5-.5-.3c-3.4,2.6-6.2,4.5-10.3,4.8v.5c2.1.2,2.8.9,2.8,3.3s-.1,1.8-.3,3c-.1.9-.3,2-.5,2.9l-11.5,57.1c-.1.6-.3,1.2-1,1.3v.5c1.8,0,5.1.5,9.1.5h.2c15.9,0,28.9-16.3,30.1-31.5,1,1.7,2.4,3.3,4.2,4.5v.1h.4c1.1.7,2.4,1.2,3.7,1.4l.5-.7c-1.4-.3-2.6-.9-3.6-1.6v-.2h-.4c-2.9-2.1-4.6-5.2-4.6-8.3s1.3-4.2,4-4.2.2,0,.3,0c9.8.5,13.7,29.8,13.7,42.5s0,6.1-.8,9.3c-1.4,5.5-9.5,10.1-14.2,10.1s-6.2-1.6-6.2-3.8,0-.5.1-.7c.6.5,2.3,1,3.5,1,2.2,0,3.4-1.6,3.4-3.4s-1.5-4.2-4.6-4.2-5.8,2-5.8,6.2,2.4,6.8,8,6.8,14.2-5.2,20.3-12.6c11.1-13.5,19.2-34.5,19.2-45.5v-1.9h.1ZM418.7,74.4h-.7c-1.6,0-3.2-.1-4.4-.5l2.7-14.4c1.8-9.7,5.5-17.4,10.1-21.1,1.8-1.5,3.8-2.3,5.8-2.3s6.5,1.2,6.5,11.4-2.8,26.9-20,26.9h0Z"/>
        <path class="cls-1" d="M561.6,39.3c10-3.1,14.5-10.8,14.5-20.2s-5.9-18.8-18.8-18.8-12.3.2-18.3.2-10.2-.1-12.3-.2v1.8c4.5,1,4.6,3.4,4.6,16.8v49.8c0,11.1-.2,14.7-2.7,16.1-2-1.8-4.1-5.2-6.3-13.5L503.4.4h-3.9l-9.7,30.6,1.9,7.4,3.7-12.4,7.4,28.4c-3.1.1-6.2.1-9.3.1h-3.7l-1.5,5h5.3c3.4,0,7,0,10.6.1l3,11.3c.8,3.2,1.4,6.1,1.4,8.4s-1.1,5.3-4.3,6.1v1.8c2.1-.1,10.6-.2,14.1-.2s5.9,0,8.5.1h2.6c2.8-.2,6.7-.2,9.3-.2,8.1,0,13.8.4,17.7.4,21.4,0,25.1-13.7,25.1-25.3s-7.5-20.7-19.8-22.7h-.2ZM546,5c1.4-.7,3-1.1,4.3-1.1,6.2,0,9.7,4.3,9.7,15.2,0,16.3-3.2,19.1-14,19.1V5h0ZM552.5,83.7c-2.1,0-5.2-.2-6.5-1.1v-40.6h3.6c9.7,0,15.9,5.8,15.9,20s-6.8,21.7-13,21.7h0Z"/>
        <path class="cls-1" d="M615.5,39.3c10-3.1,14.5-10.8,14.5-20.2s-5.9-18.8-18.8-18.8-12.3.2-18.3.2-10.2-.1-12.4-.2v1.8c4.5,1,4.6,3.4,4.6,16.8v49.8c0,13.3-.4,15.8-4.5,16.8v1.8c2-.1,8.3-.2,11.9-.2,8.1,0,13.8.4,17.7.4,21.4,0,25.1-13.7,25.1-25.3s-7.5-20.7-19.8-22.7h0v-.2ZM599.9,5c1.4-.7,3-1.1,4.3-1.1,6.2,0,9.7,4.3,9.7,15.2,0,16.3-3.2,19.1-14,19.1V5h0ZM606.5,83.7c-2.1,0-5.2-.2-6.5-1.1v-40.6h3.6c9.7,0,15.9,5.8,15.9,20s-6.8,21.7-13,21.7h0Z"/>
        <path class="cls-1" d="M685.3.6c-3.4,0-9.2-.1-11.2-.2v1.8c3.4.8,4.5,3.3,4.5,6.3s-1.2,7.7-2.8,12.4l-9.9,28.4-12.5-32.5c-2-5.3-2.7-7.8-2.7-10s1.4-3.8,4.4-4.5V.4c-2.1.1-9.1.2-13.4.2s-10.7-.1-12.7-.2v1.8c1.8.1,4.2,3.4,8.5,14.2l16.9,41.9v10.3c0,13.3-.1,15.8-4.8,16.8v1.8c2-.1,8.5-.2,12.1-.2s10,.1,12.1.2v-1.8c-4.8-.9-4.8-3.4-4.8-16.8v-14.7l10.8-30.5c4.4-12.6,7.4-19,13-21.3V.4c-1.9.1-4.4.2-7.6.2h.1Z"/>
      </g>
    </g>
  </g>
</svg>